<svg width="50" height="51" viewBox="0 0 50 51" fill="none" xmlns="http://www.w3.org/2000/svg">
<mask id="mask0_18_1143" style="mask-type:alpha" maskUnits="userSpaceOnUse" x="0" y="0" width="50" height="51">
<path d="M37.585 50.4769C38.6898 50.4537 39.8023 50.3842 40.8915 50.1912C41.9962 49.9904 43.0315 49.6817 44.0358 49.1644C45.0325 48.6702 45.9362 48.014 46.7167 47.2419C47.4969 46.4698 48.1612 45.5742 48.6558 44.5935C49.1656 43.5975 49.4902 42.5863 49.691 41.4898C49.8919 40.409 49.9537 39.3125 49.9769 38.2162C49.9923 37.7144 49.9923 37.2125 50 36.7106V14.2817C50 13.7798 50 13.278 49.9769 12.7761C49.9537 11.6875 49.8842 10.5834 49.691 9.50248C49.4902 8.40612 49.1656 7.38696 48.6558 6.39871C48.1535 5.42587 47.4969 4.53027 46.7167 3.75046C45.9362 2.97837 45.0248 2.32211 44.0358 1.82798C43.0237 1.32613 41.9962 1.00185 40.8915 0.801113C39.8023 0.608091 38.6898 0.538604 37.585 0.515442C37.3765 0.515442 37.1677 0.507721 36.8279 0.5H14.5627L12.4305 0.523162C11.3257 0.546325 10.2132 0.615812 9.12392 0.808833C8.01917 1.00957 6.98394 1.32613 5.9796 1.8357C4.983 2.32983 4.0791 2.9861 3.29883 3.75819C2.51854 4.53027 1.85414 5.42587 1.3597 6.40642C0.84209 7.40242 0.52534 8.41383 0.324475 9.51019C0.115884 10.5911 0.0540792 11.6875 0.0231767 12.7838C0.00772558 13.2857 0.00772558 13.7875 0 14.2894V36.7183C0 37.2202 0.00772558 37.7221 0.0231767 38.224C0.0463535 39.3125 0.115884 40.4167 0.309023 41.4975C0.50989 42.594 0.834363 43.6131 1.34425 44.6012C1.84641 45.5742 2.50308 46.4698 3.28337 47.2496C4.06367 48.0217 4.97527 48.6779 5.96415 49.1721C6.97621 49.674 8.00371 49.9981 9.10846 50.199C10.1978 50.3919 11.3102 50.4615 12.415 50.4846C12.6236 50.4846 12.8322 50.4923 13.1721 50.5H34.2552L37.5696 50.4846L37.585 50.4769Z" fill="#299400"/>
</mask>
<g mask="url(#mask0_18_1143)">
<path d="M0 0.5H50V50.5H0V0.5Z" fill="#19AA1E"/>
<path fill-rule="evenodd" clip-rule="evenodd" d="M0 0.5H50V16.9062L0 9.09375V0.5Z" fill="#FFB919"/>
<path fill-rule="evenodd" clip-rule="evenodd" d="M0 45.0312L50 37.2188V50.5H0V45.0312Z" fill="#82D714"/>
<path fill-rule="evenodd" clip-rule="evenodd" d="M0 8.10498L17.4529 10.832C19.6255 9.45675 22.2102 8.70275 25 8.70275C28.864 8.70275 32.3346 10.1492 34.8617 12.6893C35.1806 13.0098 35.4815 13.3449 35.7633 13.693L50 15.9174V17.8943L37.209 15.8957C38.1592 17.7193 38.6719 19.7511 38.6719 21.8246C38.6719 24.5034 38.0727 27.1742 36.8342 29.8559L36.7965 29.9371L36.2704 31.0642H35.0265C32.4579 31.0642 30.7542 31.8325 29.6402 33.1942C28.7656 34.2634 28.2598 35.7046 28.0896 37.2771L28.0844 37.3263L28.0596 37.5775L28.049 37.6869L28.0287 37.9007C27.9635 38.6028 27.92 39.1982 27.8979 39.6834L50 36.23V38.2067L0 46.0192V44.0425L22.1269 40.585L22.1173 40.1413L22.1144 40.0161L22.1125 39.9519L22.109 39.853C22.0892 39.3148 22.0398 38.625 21.9608 37.789L21.9456 37.6305L21.9185 37.3559C21.7598 35.775 21.2615 34.3155 20.3892 33.2305C19.2869 31.8596 17.5988 31.08 15.051 31.0644L14.9735 31.0642H13.7296L13.2036 29.9371C11.9395 27.2282 11.3281 24.5305 11.3281 21.8246C11.3281 18.4219 12.7086 15.1315 15.1383 12.6893C15.2085 12.6188 15.2793 12.5491 15.3509 12.4803L0 10.0818V8.10498Z" fill="white"/>
<path fill-rule="evenodd" clip-rule="evenodd" d="M25 10.6562C31.9804 10.6562 36.7188 16.0291 36.7188 21.825C36.7188 24.1519 36.211 26.5731 35.0265 29.1115C28.1577 29.1115 26.4623 34.0306 26.1417 37.1256L26.1213 37.3319C26.0125 38.4365 25.9498 39.3227 25.9325 39.9908L24.0721 40.2817L24.0717 40.2215C24.0646 39.521 23.9983 38.5385 23.8731 37.274L23.8677 37.2187C23.5715 34.1304 21.9117 29.1115 14.9735 29.1115C13.7889 26.5731 13.2812 24.1519 13.2812 21.825C13.2812 16.0291 18.0195 10.6562 25 10.6562Z" fill="#0073FA"/>
</g>
</svg>
