<svg width="100" height="100" viewBox="0 0 100 100" fill="none" xmlns="http://www.w3.org/2000/svg">
<path d="M23.8775 37.6328C20.6671 37.7399 17.6273 39.1042 15.4134 41.4316C13.1996 43.7591 11.9889 46.8633 12.0425 50.075C12.096 53.2868 13.4095 56.3489 15.6997 58.6012C17.9899 60.8536 21.0735 62.1158 24.2857 62.1158C27.4979 62.1158 30.5814 60.8536 32.8717 58.6012C35.1619 56.3489 36.4753 53.2868 36.5289 50.075C36.5824 46.8633 35.3718 43.7591 33.1579 41.4316C30.944 39.1042 27.9042 37.7399 24.6938 37.6328H23.8775ZM41.0204 37.6328C37.81 37.7399 34.7702 39.1042 32.5563 41.4316C30.3424 43.7591 29.1318 46.8633 29.1853 50.075C29.2389 53.2868 30.5523 56.3489 32.8425 58.6012C35.1328 60.8536 38.2163 62.1158 41.4285 62.1158C44.6407 62.1158 47.7243 60.8536 50.0145 58.6012C52.3047 56.3489 53.6182 53.2868 53.6717 50.075C53.7253 46.8633 52.5146 43.7591 50.3008 41.4316C48.0869 39.1042 45.0471 37.7399 41.8367 37.6328H41.0204ZM58.1632 37.6328C54.9528 37.7399 51.913 39.1042 49.6992 41.4316C47.4853 43.7591 46.2746 46.8633 46.3282 50.075C46.3817 53.2868 47.6952 56.3489 49.9854 58.6012C52.2756 60.8536 55.3592 62.1158 58.5714 62.1158C61.7836 62.1158 64.8671 60.8536 67.1574 58.6012C69.4476 56.3489 70.761 53.2868 70.8146 50.075C70.8681 46.8633 69.6575 43.7591 67.4436 41.4316C65.2297 39.1042 62.19 37.7399 58.9795 37.6328H58.1632ZM75.3061 37.6328C72.0957 37.7399 69.0559 39.1042 66.842 41.4316C64.6282 43.7591 63.4175 46.8633 63.471 50.075C63.5246 53.2868 64.838 56.3489 67.1283 58.6012C69.4185 60.8536 72.502 62.1158 75.7142 62.1158C78.9264 62.1158 82.01 60.8536 84.3002 58.6012C86.5904 56.3489 87.9039 53.2868 87.9574 50.075C88.011 46.8633 86.8003 43.7591 84.5865 41.4316C82.3726 39.1042 79.3328 37.7399 76.1224 37.6328H75.3061Z" stroke="black"/>
</svg>
