<svg width="1062" height="189" viewBox="0 0 1062 189" fill="none" xmlns="http://www.w3.org/2000/svg">
<path fill-rule="evenodd" clip-rule="evenodd" d="M29.2969 172.177C17.5905 160.751 -13.7989 122.466 7.10568 102.179C44.4586 65.9238 477.091 -95.0472 709.221 81.4592C1008.35 58.4752 1061.99 188.026 1061.99 188.026H1019.24C1019.24 188.026 1022.74 87.7613 704.866 89.2503C642.224 86.9898 574.472 84.4012 549.834 81.9279C545.761 81.5205 539.888 79.0004 536.794 76.3288C529.475 69.6193 530.386 60.4257 534.08 54.2497C536.064 50.9328 539.729 48.9751 543.603 48.9607C554.587 48.9102 563.955 50.9869 571.819 53.781C574.104 54.5922 576.135 55.9947 577.656 57.8839C582.192 63.5191 585.409 69.1398 587.129 72.4386C588.098 74.299 589.89 75.5573 591.976 75.8168C595.763 76.289 602.52 76.4778 611.294 76.7228C623.089 77.0523 638.529 77.4835 655.3 78.8417C524.798 -18.2644 243.399 40.8595 243.399 40.8595C243.399 40.8595 237.411 57.9019 260.234 61.9904C277.821 65.14 337.193 70.8914 378.521 74.8949C400.774 77.0506 417.796 78.6995 420.246 79.1626C407.968 78.9193 392.037 78.1026 373.657 77.1604C292.094 72.9792 162.301 66.3256 89.4411 96.3312C40.2878 116.575 28.5416 131.8 29.2969 172.177ZM861.722 114.005C928.48 117.044 955.496 178.594 955.496 178.594C851.848 67.276 767.658 179.748 767.658 179.748C767.658 179.748 793.406 110.893 861.722 114.005ZM351.398 127.457H382.983C382.983 127.457 395.467 162.36 415.641 163.117C418.417 164.376 739.952 178.209 739.952 178.209C739.952 178.209 410.975 183.57 390.667 174.247C364.355 162.176 351.398 127.457 351.398 127.457ZM186.915 114.004C108.479 114.004 92.8516 179.747 92.8516 179.747C92.8516 179.747 171.533 66.2044 277.953 177.396C277.953 177.396 253.745 114 186.915 114.004ZM679.552 111.464C679.552 111.464 543.378 105.886 222.244 81.9189C316.42 103.382 306.164 173.24 306.164 173.24C306.164 173.24 326.607 142.643 308.09 116.602C442.373 115.767 679.552 111.464 679.552 111.464Z" fill="white" fill-opacity="0.04"/>
</svg>
