<svg width="47" height="31" viewBox="0 0 47 31" fill="none" xmlns="http://www.w3.org/2000/svg">
<path d="M0 0.5H46.3636V30.5H0V0.5Z" fill="#DE2910"/>
<path d="M5.56369 13.3659L8.6932 3.97729L11.8227 13.3659L3.47736 7.62843H13.909L5.56369 13.3659Z" fill="#FFDE00"/>
<path d="M19.1374 4.15719L15.9167 4.87091L18.065 2.36752L17.8543 5.73676L16.0671 2.75396L19.1374 4.15719Z" fill="#FFDE00"/>
<path d="M22.3878 8.2765L19.1424 7.68525L22.0935 6.211L20.5926 9.2348L20.102 5.7923L22.3878 8.2765Z" fill="#FFDE00"/>
<path d="M21.9141 14.0559L19.192 12.1924L22.4878 12.0499L19.8841 14.1987L20.8402 10.8554L21.9141 14.0559Z" fill="#FFDE00"/>
<path d="M17.8202 17.8314L16.0291 15.0612L19.1241 16.2027L15.8926 17.1791L18.0657 14.4645L17.8202 17.8314Z" fill="#FFDE00"/>
</svg>
