<svg width="48" height="48" viewBox="0 0 48 48" fill="none" xmlns="http://www.w3.org/2000/svg">
<rect width="48" height="48" rx="12" fill="#F2EFF2"/>
<g clip-path="url(#clip0_39_1346)">
<path d="M24 36C30.6274 36 36 30.6274 36 24C36 17.3726 30.6274 12 24 12C17.3726 12 12 17.3726 12 24C12 30.6274 17.3726 36 24 36Z" fill="#29AAEB"/>
<path fill-rule="evenodd" clip-rule="evenodd" d="M17.4323 23.8739C20.9305 22.3498 23.2632 21.345 24.4304 20.8595C27.7629 19.4734 28.4554 19.2326 28.9067 19.2247C29.006 19.2229 29.228 19.2475 29.3717 19.3642C29.4931 19.4627 29.5265 19.5958 29.5425 19.6892C29.5585 19.7826 29.5784 19.9953 29.5626 20.1616C29.382 22.0591 28.6006 26.6638 28.203 28.789C28.0348 29.6882 27.7036 29.9897 27.383 30.0193C26.6861 30.0834 26.1569 29.5587 25.482 29.1163C24.4258 28.424 23.8292 27.993 22.804 27.3174C21.6192 26.5367 22.3872 26.1075 23.0624 25.4063C23.2391 25.2227 26.3095 22.43 26.369 22.1766C26.3764 22.1449 26.3833 22.0268 26.3131 21.9645C26.243 21.9021 26.1394 21.9234 26.0647 21.9404C25.9587 21.9644 24.2715 23.0796 21.003 25.286C20.5241 25.6148 20.0903 25.775 19.7017 25.7666C19.2732 25.7574 18.449 25.5244 17.8363 25.3252C17.0848 25.0809 16.4875 24.9518 16.5395 24.5369C16.5666 24.3208 16.8642 24.0998 17.4323 23.8739Z" fill="white"/>
</g>
<defs>
<clipPath id="clip0_39_1346">
<rect width="24" height="24" fill="white" transform="translate(12 12)"/>
</clipPath>
</defs>
</svg>
