<svg width="70" height="60" viewBox="0 0 70 60" fill="none" xmlns="http://www.w3.org/2000/svg">
<path fill-rule="evenodd" clip-rule="evenodd" d="M5.91071 17.1135C5.91071 17.1135 4.66449 11.994 4.35335 10.752C10.7713 8.77024 12.3385 5.98929 14.161 2.75529L14.2628 2.57475C33.6445 -2.01054 48.3939 0.519981 55.9244 2.57475C55.9244 2.57475 58.7606 9.02419 65.315 10.5092C64.5607 13.2584 62.3884 19.9983 62.3884 19.9983L64.5985 10.9342C58.1477 8.81954 55.5814 3.31854 55.5814 3.31854C55.5814 3.31854 38.6835 -2.46406 14.5869 3.31854C11.897 9.55467 5.07716 11.1798 5.07716 11.1798L5.91071 17.1135ZM16.0284 41.2968C16.0284 41.2968 25.1195 52.9046 34.705 58.2337C44.1012 52.9804 53.6008 41.2968 53.6008 41.2968C53.6008 41.2968 49.3513 49.1534 34.6951 59.155C21.3141 50.7886 16.0284 41.2968 16.0284 41.2968ZM1.10463 35.082V35.209H3.99192V35.082L3.14876 34.7568V30.4087H4.28618L4.9223 31.7178H5.04985V29.9723H0.0466963V31.7178H0.174014L0.81037 30.4087H1.94756V34.7568L1.10463 35.082ZM5.69406 35.209V35.082L6.37004 34.7568V30.4246L5.69406 30.0993V29.9723H10.0287V31.345H9.90165L9.31313 30.4087H7.571V32.2892H8.79612L9.24138 31.6067H9.3687V33.3921H9.24138L8.79612 32.7255H7.571V34.7728H9.50399L10.1244 33.5904H10.2515V35.209H5.69406ZM14.2286 33.0429H12.7094L13.4729 31.1942L14.2286 33.0429ZM10.9197 35.082V35.209H12.6459V35.082L11.9856 34.7964L12.5265 33.4791H14.4115L14.9524 34.7964L14.2605 35.082V35.209H16.7738V35.082L16.2331 34.7964L14.181 29.9328H13.4808L11.4051 34.8123L10.9197 35.082ZM17.267 35.209V35.082L17.943 34.7568L18.11 30.4246L17.4101 30.0993V29.9723H19.3827L20.9815 33.6617L22.5642 29.9723H24.4731V30.0993L23.7811 30.3453L23.9164 34.7568L24.5209 35.082V35.209H22.1108V35.082L22.7471 34.7648L22.6676 30.9958L20.8542 35.2487H20.4087L18.5794 31.0117L18.476 34.7648L19.1679 35.082V35.209H17.267ZM29.078 30.409H29.587C30.2602 30.409 30.7681 30.6075 31.1102 31.004C31.452 31.4007 31.6232 31.9323 31.6232 32.5987C31.6232 33.2602 31.456 33.7878 31.1221 34.1817C30.788 34.5758 30.3134 34.773 29.6984 34.773H29.078V30.409ZM27.2008 35.0822V35.2092H29.8574C30.2921 35.2092 30.6926 35.1379 31.0584 34.995C31.4244 34.8523 31.7425 34.6537 32.0129 34.3999C32.2835 34.1462 32.494 33.8447 32.6453 33.4955C32.7965 33.1463 32.872 32.7655 32.872 32.3529C32.872 31.8982 32.7566 31.4907 32.5259 31.131C32.2952 30.7713 31.9599 30.4883 31.5198 30.282C31.0797 30.0759 30.5442 29.9728 29.9132 29.9728H27.2008V30.0995L27.8768 30.4249V34.7571L27.2008 35.0822ZM33.5871 35.209V35.082L34.2631 34.7568V30.4246L33.5871 30.0993V29.9723H37.9218V31.345H37.7947L37.2062 30.4087H35.4641V32.2892H36.6892L37.1345 31.6067H37.2618V33.3921H37.1345L36.6892 32.7255H35.4641V34.7728H37.3971L38.0175 33.5904H38.1446V35.209H33.5871ZM39.0121 35.082V35.209H43.4105V33.273H43.2832L42.6389 34.7728H40.889V30.4246L41.6447 30.0993V29.9723H39.0121V30.0993L39.6881 30.4246V34.7568L39.0121 35.082ZM44.166 35.209V35.082L44.8422 34.7568V30.4246L44.166 30.0993V29.9723H46.7192V30.0993L46.0432 30.4246V34.7568L46.7192 35.082V35.209H44.166ZM47.809 30.409L49.9246 35.249H50.3858L52.5493 30.3535L53.0107 30.0998V29.9728H51.3085V30.0998L51.9528 30.401L50.5527 33.654H50.4892L49.0735 30.409L49.7258 30.0998V29.9728H47.2441V30.0998L47.809 30.409ZM53.5279 35.2094V35.0824L54.2041 34.7573V30.4251L53.5279 30.0998V29.9728H57.8628V31.3455H57.7357L57.147 30.4092H55.4051V32.2897H56.63L57.0755 31.6072H57.2025V33.3925H57.0755L56.63 32.7259H55.4051V34.7732H57.3378L57.9582 33.5909H58.0856V35.2094H53.5279ZM60.8296 30.409H61.1477C61.5135 30.409 61.7907 30.495 61.9789 30.667C62.167 30.8389 62.2612 31.081 62.2612 31.3927C62.2612 31.6891 62.1658 31.9298 61.9747 32.115C61.7839 32.3 61.5241 32.3926 61.1953 32.3926H60.8296V30.409ZM58.9524 35.0822V35.2092H61.426V35.0822L60.8296 34.7491V32.7814H61.2511L62.7224 35.2092H64.4486V35.0822L63.8758 34.765L62.4043 32.5115C62.7224 32.3901 62.9797 32.2247 63.1759 32.0156C63.3719 31.8067 63.4702 31.5569 63.4702 31.266C63.4702 30.8639 63.3096 30.5479 62.989 30.3178C62.668 30.0878 62.2294 29.9728 61.6725 29.9728H58.9524V30.0995L59.6284 30.4249V34.7571L58.9524 35.0822ZM65.8718 35.2094V35.0824L66.5874 34.7573V32.7657L64.8537 30.4092L64.3128 30.0998V29.9728H66.7706V30.0998L66.1741 30.3933V30.4251L67.5579 32.2897L68.7987 30.441V30.4092L68.1863 30.0998V29.9728H69.9999V30.0998L69.4667 30.3615L67.7886 32.7578V34.7573L68.4965 35.0824V35.2094H65.8718ZM26.945 40.0942H25.4817L26.2172 38.3134L26.945 40.0942ZM23.7578 42.0585V42.1806H25.4205V42.0585L24.7846 41.7832L25.3053 40.5143H27.1213L27.6423 41.7832L26.9757 42.0585V42.1806H29.3969V42.0585L28.8759 41.7832L26.899 37.098H26.2249L24.2251 41.7986L23.7578 42.0585ZM32.4836 42.2572C32.0393 42.2572 31.6487 42.1847 31.3115 42.0395C30.9743 41.8942 30.7113 41.6573 30.5223 41.3284C30.3333 40.9998 30.2388 40.5605 30.2388 40.0102V37.5723L29.5799 37.2589V37.1365H32.0545V37.2589L31.3957 37.5723V40.0179C31.3957 40.441 31.4609 40.7734 31.591 41.0152C31.7214 41.2573 31.8974 41.4295 32.1197 41.5312C32.3418 41.6332 32.5882 41.6839 32.859 41.6839C33.0839 41.6839 33.293 41.6381 33.4874 41.5464C33.6813 41.4547 33.8372 41.3057 33.9547 41.0994C34.0722 40.8929 34.1308 40.6216 34.1308 40.2855V37.5569L33.4107 37.2589V37.1365H35.3261V37.2589L34.6673 37.5646V40.0102C34.6673 40.5605 34.5753 40.9998 34.3913 41.3284C34.2075 41.6573 33.9521 41.8942 33.6253 42.0395C33.2982 42.1847 32.9176 42.2572 32.4836 42.2572ZM36.9665 42.0584V42.1807H39.7476V42.0584L38.9356 41.745V37.5569H40.0313L40.6442 38.8178H40.7666V37.1365H35.9475V38.8178H36.0701L36.683 37.5569H37.7787V41.745L36.9665 42.0584ZM44.1907 41.8598C44.4461 41.8598 44.6721 41.7784 44.8688 41.6151C45.0653 41.4521 45.2187 41.2229 45.3284 40.9272C45.4381 40.6318 45.4932 40.2854 45.4932 39.888C45.4932 39.3987 45.4255 38.9707 45.2902 38.6037C45.1546 38.2372 44.972 37.953 44.7424 37.7519C44.5124 37.5505 44.2545 37.4497 43.9684 37.4497C43.7131 37.4497 43.4859 37.5301 43.2866 37.6906C43.0875 37.851 42.9302 38.0791 42.8156 38.3747C42.7007 38.6701 42.643 39.0165 42.643 39.4142C42.643 39.903 42.7119 40.331 42.8498 40.698C42.9877 41.0648 43.1743 41.3501 43.4092 41.5541C43.6442 41.7578 43.9047 41.8598 44.1907 41.8598ZM44.0681 42.2572C43.6901 42.2572 43.3403 42.1921 43.0184 42.0623C42.6967 41.9323 42.4172 41.7515 42.1797 41.5197C41.9421 41.2879 41.7569 41.014 41.6242 40.698C41.4913 40.3823 41.4249 40.0356 41.4249 39.6586C41.4249 39.2815 41.4913 38.9351 41.6242 38.6191C41.7569 38.3032 41.9421 38.0295 42.1797 37.7975C42.4172 37.5657 42.6967 37.3849 43.0184 37.2548C43.3403 37.125 43.6901 37.06 44.0681 37.06C44.4512 37.06 44.8036 37.125 45.1253 37.2548C45.447 37.3849 45.7268 37.5657 45.9643 37.7975C46.2018 38.0295 46.387 38.3032 46.52 38.6191C46.6524 38.9351 46.719 39.2815 46.719 39.6586C46.719 40.0356 46.6524 40.3823 46.52 40.698C46.387 41.014 46.2018 41.2879 45.9643 41.5197C45.7268 41.7515 45.447 41.9323 45.1253 42.0623C44.8036 42.1921 44.4512 42.2572 44.0681 42.2572ZM62.5067 26.8272C62.5067 26.8272 60.7541 22.8342 56.4231 22.637C51.9912 22.4352 50.3208 26.9021 50.3208 26.9021C50.3208 26.9021 55.7826 19.6055 62.5067 26.8272ZM23.3159 23.5099H25.3649C25.3649 23.5099 26.1748 25.7742 27.4836 25.8234C27.6637 25.905 48.5232 26.8024 48.5232 26.8024C48.5232 26.8024 27.1809 27.1502 25.8634 26.5454C24.1565 25.7623 23.3159 23.5099 23.3159 23.5099ZM12.6451 22.6371C7.55663 22.6371 6.54278 26.9022 6.54278 26.9022C6.54278 26.9022 11.6472 19.5361 18.5512 26.7497C18.5512 26.7497 16.9808 22.6369 12.6451 22.6371ZM2.41964 26.411C1.66019 25.6698 -0.3762 23.186 0.979984 21.8699C3.40325 19.5179 31.4702 9.07488 46.5296 20.5257C65.9354 19.0346 69.4155 27.4392 69.4155 27.4392H66.6424C66.6424 27.4392 66.8689 20.9346 46.2471 21.0312C42.1832 20.8845 37.7878 20.7166 36.1894 20.5561C35.9252 20.5297 35.5442 20.3662 35.3435 20.1929C34.8686 19.7576 34.9277 19.1612 35.1674 18.7605C35.2961 18.5453 35.5338 18.4183 35.7852 18.4174C36.4978 18.4141 37.1055 18.5488 37.6157 18.7301C37.7639 18.7827 37.8957 18.8737 37.9944 18.9963C38.2887 19.3618 38.4973 19.7265 38.6089 19.9405C38.6718 20.0612 38.7881 20.1428 38.9234 20.1597C39.169 20.1903 39.6074 20.2025 40.1767 20.2184C40.9418 20.2398 41.9435 20.2678 43.0315 20.3559C34.5652 14.0562 16.3095 17.8918 16.3095 17.8918C16.3095 17.8918 15.921 18.9974 17.4017 19.2627C18.5425 19.467 22.3935 19.84 25.0746 20.0998L25.0746 20.0998L25.0752 20.0998L25.0755 20.0998L25.0756 20.0999L25.0761 20.0999L25.0763 20.0999L25.0776 20.1C26.5202 20.2398 27.6236 20.3467 27.7824 20.3767C26.9859 20.3609 25.9524 20.3079 24.76 20.2468C19.4685 19.9756 11.0483 19.5439 6.32148 21.4905C3.13267 22.8039 2.37064 23.7916 2.41964 26.411ZM44.6048 22.4723C44.6048 22.4723 35.7705 22.1104 14.937 20.5555C21.0467 21.9479 20.3813 26.48 20.3813 26.48C20.3813 26.48 21.7076 24.495 20.5063 22.8056C29.2179 22.7514 44.6048 22.4723 44.6048 22.4723ZM70 37.2088H56.8154V37.5444H70V37.2088ZM54.6544 38.9823H64.8272V39.3179H54.6544V38.9823ZM13.1848 37.2819H0V37.6176H13.1848V37.2819ZM4.76254 38.9818H14.9351V39.3174H4.76254V38.9818Z" fill="white"/>
</svg>
