<svg width="20" height="20" viewBox="0 0 20 20" fill="none" xmlns="http://www.w3.org/2000/svg">
<g clip-path="url(#clip0_18_505)">
<path d="M10.0243 0H9.97874C4.46847 0 0.00151443 4.46696 0.00151443 9.97723V10.0228C0.00151443 15.533 4.46847 20 9.97874 20H10.0243C15.5346 20 20.0015 15.533 20.0015 10.0228V9.97723C20.0015 4.46696 15.5346 0 10.0243 0Z" fill="white" fill-opacity="0.5"/>
<path fill-rule="evenodd" clip-rule="evenodd" d="M13.0939 4.06885H6.90532C5.19562 4.06885 3.80474 5.45973 3.80474 7.16943V12.8311C3.80474 14.5408 5.19562 15.9316 6.90532 15.9316H13.0939C14.8036 15.9316 16.1945 14.5408 16.1945 12.8311V7.16943C16.1945 5.45973 14.8036 4.06885 13.0939 4.06885ZM4.89853 7.16943C4.89853 6.06303 5.79892 5.16263 6.90532 5.16263H13.0939C14.2003 5.16263 15.1007 6.06303 15.1007 7.16943V12.8311C15.1007 13.9375 14.2003 14.8379 13.0939 14.8379H6.90532C5.79892 14.8379 4.89853 13.9375 4.89853 12.8311V7.16943ZM10.0003 12.8836C11.5902 12.8836 12.8844 11.5901 12.8844 9.99954C12.8844 8.40895 11.5909 7.11547 10.0003 7.11547C8.40975 7.11547 7.11626 8.40895 7.11626 9.99954C7.11626 11.5901 8.40975 12.8836 10.0003 12.8836ZM10.0003 8.20996C10.9876 8.20996 11.7906 9.01296 11.7906 10.0002C11.7906 10.9875 10.9876 11.7905 10.0003 11.7905C9.01305 11.7905 8.21005 10.9875 8.21005 10.0002C8.21005 9.01296 9.01305 8.20996 10.0003 8.20996ZM13.9287 6.80436C13.9287 7.23319 13.5798 7.58144 13.1518 7.58144C12.7231 7.58144 12.375 7.23319 12.375 6.80436C12.375 6.37554 12.7231 6.02729 13.1518 6.02729C13.5805 6.02729 13.9287 6.37554 13.9287 6.80436Z" fill="white"/>
</g>
<defs>
<clipPath id="clip0_18_505">
<rect width="20" height="20" fill="white"/>
</clipPath>
</defs>
</svg>
