<svg width="48" height="48" viewBox="0 0 48 48" fill="none" xmlns="http://www.w3.org/2000/svg">
<rect width="48" height="48" rx="12" fill="#F2EFF2"/>
<g clip-path="url(#clip0_39_1365)">
<path d="M24.0292 12H23.9745C17.3622 12 12.0018 17.3604 12.0018 23.9727V24.0273C12.0018 30.6397 17.3622 36 23.9745 36H24.0292C30.6415 36 36.0018 30.6397 36.0018 24.0273V23.9727C36.0018 17.3604 30.6415 12 24.0292 12Z" fill="url(#paint0_radial_39_1365)"/>
<path fill-rule="evenodd" clip-rule="evenodd" d="M27.7123 16.8828H20.286C18.2344 16.8828 16.5653 18.5519 16.5653 20.6035V27.3975C16.5653 29.4491 18.2344 31.1182 20.286 31.1182H27.7123C29.7639 31.1182 31.433 29.4491 31.433 27.3975V20.6035C31.433 18.5519 29.7639 16.8828 27.7123 16.8828ZM17.8779 20.6035C17.8779 19.2758 18.9583 18.1954 20.286 18.1954H27.7123C29.04 18.1954 30.1204 19.2758 30.1204 20.6035V27.3975C30.1204 28.7252 29.04 29.8056 27.7123 29.8056H20.286C18.9583 29.8056 17.8779 28.7252 17.8779 27.3975V20.6035ZM23.9998 27.4608C25.9077 27.4608 27.4607 25.9087 27.4607 24C27.4607 22.0913 25.9085 20.5391 23.9998 20.5391C22.0911 20.5391 20.5389 22.0913 20.5389 24C20.5389 25.9087 22.0911 27.4608 23.9998 27.4608ZM23.9998 21.8525C25.1846 21.8525 26.1482 22.8161 26.1482 24.0008C26.1482 25.1855 25.1846 26.1491 23.9998 26.1491C22.8151 26.1491 21.8515 25.1855 21.8515 24.0008C21.8515 22.8161 22.8151 21.8525 23.9998 21.8525ZM28.7139 20.1649C28.7139 20.6795 28.2953 21.0974 27.7817 21.0974C27.2673 21.0974 26.8495 20.6795 26.8495 20.1649C26.8495 19.6503 27.2673 19.2324 27.7817 19.2324C28.2961 19.2324 28.7139 19.6503 28.7139 20.1649Z" fill="white"/>
</g>
<defs>
<radialGradient id="paint0_radial_39_1365" cx="0" cy="0" r="1" gradientUnits="userSpaceOnUse" gradientTransform="translate(18.3769 37.8485) rotate(-90) scale(23.7858 22.1226)">
<stop stop-color="#FFDD55"/>
<stop offset="0.1" stop-color="#FFDD55"/>
<stop offset="0.5" stop-color="#FF543E"/>
<stop offset="1" stop-color="#C837AB"/>
</radialGradient>
<clipPath id="clip0_39_1365">
<rect width="24" height="24" fill="white" transform="translate(12 12)"/>
</clipPath>
</defs>
</svg>
