<svg width="100" height="100" viewBox="0 0 100 100" fill="none" xmlns="http://www.w3.org/2000/svg">
<g clip-path="url(#clip0_18_418)">
<path d="M56.4115 57.6625C56.4115 57.8144 56.4595 57.9025 56.5476 57.9025C56.622 57.9025 56.6836 57.8626 56.7396 57.8224L81.6731 41.6402C82.0944 41.3457 82.5991 41.1943 83.1129 41.2081H88.5923C89.4323 41.2081 90.0001 41.768 90.0001 42.608V53.0709C90.0001 54.3346 89.7202 55.0707 88.6003 55.7425L81.9531 59.7422C81.8867 59.7883 81.8083 59.8223 81.7291 59.8223C81.65 59.8223 81.5692 59.7583 81.5692 59.5263V47.3196C81.5692 47.1755 81.5293 47.0796 81.4331 47.0796C81.363 47.0796 81.2964 47.1155 81.2411 47.1597L63.0188 58.9986C62.6028 59.2785 62.1148 59.4306 61.619 59.4226H49.5401C48.6921 59.4226 48.1322 58.8628 48.1322 58.0147V42.9363C48.1322 42.8243 48.0843 42.7204 47.9881 42.7204C47.9182 42.7204 47.8518 42.757 47.7961 42.8005L35.7736 50.0154C35.6537 50.0954 35.6218 50.1514 35.6218 50.2074C35.6218 50.2554 35.6459 50.3033 35.7257 50.3914L44.3168 58.9745C44.4288 59.0865 44.5088 59.1746 44.5088 59.2705C44.5088 59.3505 44.3808 59.4146 44.2289 59.4146H36.4696C35.8615 59.4146 35.3896 59.3265 35.0617 58.9986L29.8542 53.7991C29.8143 53.7514 29.7569 53.7191 29.6943 53.7191C29.6378 53.7191 29.5828 53.7382 29.5344 53.767L20.8313 58.9986C20.3033 59.3187 19.9433 59.4065 19.4234 59.4065H11.4163C10.5604 59.4146 10.0004 58.8467 10.0004 58.0067V47.7436C10.0004 46.4718 10.2803 45.7438 11.4082 45.072L18.0956 41.0565C18.1476 41.0211 18.2088 41.0017 18.2716 41.0005C18.3756 41.0005 18.4315 41.1044 18.4315 41.3364V55.079C18.4315 55.2231 18.4634 55.2869 18.5676 55.2869C18.6385 55.2869 18.7037 55.2469 18.7677 55.2068L41.3574 41.6161C41.7895 41.3201 42.3174 41.1762 42.8454 41.2001H55.0041C55.8441 41.2001 56.412 41.7599 56.412 42.5999L56.4039 57.6625H56.4115Z" fill="#131E29"/>
</g>
<defs>
<clipPath id="clip0_18_418">
<rect width="80" height="18.822" fill="white" transform="translate(10 41)"/>
</clipPath>
</defs>
</svg>
