<svg width="36" height="27" viewBox="0 0 36 27" fill="none" xmlns="http://www.w3.org/2000/svg">
<mask id="mask0_18_632" style="mask-type:luminance" maskUnits="userSpaceOnUse" x="0" y="0" width="36" height="27">
<path d="M0.226562 0.318115H35.3798V26.6818H0.226562V0.318115Z" fill="white"/>
</mask>
<g mask="url(#mask0_18_632)">
<path fill-rule="evenodd" clip-rule="evenodd" d="M18.1302 13.5203C18.1302 15.0567 17.5199 16.5301 16.4335 17.6165C15.3472 18.7028 13.8738 19.3131 12.3374 19.3131C10.8011 19.3131 9.32765 18.7028 8.24129 17.6165C7.15493 16.5301 6.54462 15.0567 6.54462 13.5203C6.54462 11.984 7.15493 10.5106 8.24129 9.42421C9.32765 8.33785 10.8011 7.72754 12.3374 7.72754C13.8738 7.72754 15.3472 8.33785 16.4335 9.42421C17.5199 10.5106 18.1302 11.984 18.1302 13.5203Z" fill="white"/>
<path fill-rule="evenodd" clip-rule="evenodd" d="M25.3956 13.8602C25.3956 18.0311 22.0486 21.4192 17.9139 21.4192C13.7791 21.4192 10.4373 18.0311 10.4373 13.8602C10.4373 9.68943 13.7843 6.29614 17.919 6.29614C22.0538 6.29614 25.3956 9.68943 25.3956 13.8602Z" fill="#C70000"/>
<path fill-rule="evenodd" clip-rule="evenodd" d="M2.61578 6.84715L6.92047 1.86792L7.94515 2.74842L3.63531 7.7328L2.61578 6.84715ZM4.02665 8.06749L8.33134 3.08827L9.35602 3.96362L5.04618 8.95315L4.02665 8.06749Z" fill="black"/>
<path fill-rule="evenodd" clip-rule="evenodd" d="M2.61578 6.84715L6.92047 1.86792L7.94515 2.74842L3.63532 7.7328L2.61578 6.84715Z" fill="black"/>
<path fill-rule="evenodd" clip-rule="evenodd" d="M2.61578 6.84715L6.92047 1.86792L7.94515 2.74842L3.63531 7.7328L2.61578 6.84715ZM5.46841 9.31874L9.7731 4.32921L10.7978 5.21487L6.48794 10.1992L5.46841 9.31874Z" fill="black"/>
<path fill-rule="evenodd" clip-rule="evenodd" d="M2.61578 6.84715L6.92047 1.86792L7.94515 2.74842L3.63532 7.7328L2.61578 6.84715Z" fill="black"/>
<path fill-rule="evenodd" clip-rule="evenodd" d="M2.61578 6.84717L6.92047 1.86794L7.94515 2.74845L3.63532 7.73282L2.61578 6.84717ZM28.8146 1.86279L33.0884 6.87806L32.0586 7.75342L27.7848 2.73815L28.8146 1.86279ZM25.9466 4.30864L30.2204 9.32391L29.1905 10.1993L24.9167 5.18399L25.9466 4.30864Z" fill="black"/>
<path fill-rule="evenodd" clip-rule="evenodd" d="M26.6623 7.19742L30.6992 3.7063L31.4561 4.58165L27.1308 8.46411L26.652 7.19742H26.6623Z" fill="white"/>
<path fill-rule="evenodd" clip-rule="evenodd" d="M31.6364 19.4934L27.4964 24.4263L26.4821 23.5818L30.622 18.6489L31.6364 19.4934ZM27.3935 3.07275L31.6673 8.08802L30.6426 8.96338L26.3739 3.94296L27.3935 3.07275ZM33.0421 20.6622L28.897 25.5951L27.8775 24.7507L32.0225 19.8178L33.0421 20.6622ZM30.2049 18.3039L26.065 23.2368L25.0506 22.3924L29.1905 17.4595L30.2049 18.3039Z" fill="black"/>
<path fill-rule="evenodd" clip-rule="evenodd" d="M10.5455 12.5266C10.7823 14.4318 11.1273 16.5532 14.0572 16.7695C15.154 16.8364 17.2909 16.512 18.022 13.5152C18.9901 10.642 21.8839 9.81812 23.856 11.3732C24.9837 12.1043 25.2926 13.2629 25.3647 14.1383C25.2772 16.9188 23.6707 19.3389 21.6161 20.4202C19.2475 21.8259 15.9727 21.8568 13.1046 19.7251C11.8122 18.515 10.0048 16.2752 10.5455 12.5266Z" fill="#3D5897"/>
<path fill-rule="evenodd" clip-rule="evenodd" d="M27.6097 19.4214L31.657 22.9022L30.9052 23.7776L26.4203 20.0805L27.6046 19.4214H27.6097Z" fill="white"/>
<path fill-rule="evenodd" clip-rule="evenodd" d="M5.06163 18.7314L9.33542 23.7416L8.30559 24.6169L4.0318 19.6068L5.06163 18.7314Z" fill="black"/>
<path fill-rule="evenodd" clip-rule="evenodd" d="M4.32532 22.8559L8.37255 19.3596L9.12947 20.235L4.80419 24.1226L4.32532 22.8507V22.8559Z" fill="white"/>
<path fill-rule="evenodd" clip-rule="evenodd" d="M6.4828 17.5212L10.7566 22.5314L9.72677 23.4067L5.45298 18.3966L6.4828 17.5212ZM3.61473 19.9671L7.88852 24.9772L6.85869 25.8526L2.5849 20.8424L3.61473 19.9671Z" fill="black"/>
</g>
</svg>
