<svg width="24" height="24" viewBox="0 0 24 24" fill="none" xmlns="http://www.w3.org/2000/svg">
<g clip-path="url(#clip0_39_1460)">
<path d="M0.23811 23.9383C0.103435 23.8636 0.00227693 23.6936 1.47015e-06 23.5382C-0.000913498 23.4757 0.425373 22.3169 0.947304 20.9632L1.89627 18.5018L1.74287 18.2374C1.4607 17.751 0.89826 16.5701 0.722866 16.0957C0.499497 15.4915 0.219131 14.3725 0.111413 13.6552C0.00684344 12.9589 -0.00942146 11.1556 0.0830519 10.5108C0.481544 7.73221 1.63132 5.38558 3.51974 3.49674C5.40619 1.60986 7.78259 0.441754 10.5087 0.0613207C11.0946 -0.0204402 12.9258 -0.0204402 13.5117 0.0613207C17.0223 0.551221 20.0075 2.38783 21.9525 5.2544C22.9831 6.77328 23.6111 8.40448 23.9129 10.3465C24.0181 11.0234 24.031 12.8696 23.935 13.5144C23.527 16.256 22.3415 18.6551 20.4808 20.505C17.5792 23.3897 13.4504 24.5886 9.40609 23.7209C8.38141 23.501 6.84403 22.8908 5.88698 22.3241L5.65237 22.1852L3.11862 23.0924C1.72505 23.5913 0.53207 23.9998 0.467553 24C0.403036 24.0002 0.299787 23.9725 0.23811 23.9383Z" fill="#232323" fill-opacity="0.3"/>
<path d="M17.194 17.1744C16.8533 17.5112 16.5045 17.7262 16.0374 17.8873C15.6006 18.038 14.8198 18.078 14.356 17.9735C13.275 17.7299 11.6198 16.8716 10.2034 15.82C8.8651 14.8264 7.71289 13.3824 6.75362 11.4965C6.00924 10.0331 5.81173 9.09969 6.04958 8.16947C6.3111 7.14673 7.11758 6.30238 8.11223 6.00998C8.29287 5.95688 8.56089 5.93506 9.0326 5.93506C9.63908 5.93506 9.7093 5.94386 9.82425 6.0343C9.90403 6.09707 10.1604 6.54978 10.522 7.26626L11.0937 8.39899L11.0921 8.79791C11.0906 9.15458 11.073 9.23413 10.9252 9.54891C10.8343 9.74256 10.6202 10.074 10.4495 10.2855L10.1392 10.67L10.3593 11.1091C10.9318 12.2508 11.7762 13.085 12.9449 13.6635L13.3405 13.8593L13.6094 13.6165C14.177 13.1042 14.7421 12.8579 15.271 12.8924C15.5789 12.9125 15.6696 12.9491 16.7255 13.4787C17.3449 13.7893 17.8939 14.0903 17.9455 14.1475C18.0283 14.2394 18.0411 14.3301 18.0544 14.9208C18.0684 15.5419 18.0606 15.6166 17.9454 15.9598C17.7831 16.4434 17.5463 16.8262 17.194 17.1744Z" fill="white"/>
</g>
<defs>
<clipPath id="clip0_39_1460">
<rect width="24" height="24" fill="white"/>
</clipPath>
</defs>
</svg>
