<svg width="24" height="24" viewBox="0 0 24 24" fill="none" xmlns="http://www.w3.org/2000/svg">
<g clip-path="url(#clip0_39_1455)">
<path d="M12 24C18.6274 24 24 18.6274 24 12C24 5.37258 18.6274 0 12 0C5.37258 0 0 5.37258 0 12C0 18.6274 5.37258 24 12 24Z" fill="#232323" fill-opacity="0.3"/>
<path fill-rule="evenodd" clip-rule="evenodd" d="M5.43162 11.8735C8.92986 10.3493 11.2626 9.34452 12.4297 8.85905C15.7623 7.47294 16.4547 7.23216 16.9061 7.22421C17.0054 7.22246 17.2273 7.24706 17.3711 7.36372C17.4925 7.46223 17.5259 7.5953 17.5419 7.6887C17.5579 7.78209 17.5778 7.99485 17.5619 8.1611C17.3814 10.0586 16.5999 14.6633 16.2024 16.7885C16.0342 17.6877 15.703 17.9893 15.3823 18.0188C14.6854 18.0829 14.1563 17.5582 13.4813 17.1158C12.4252 16.4235 11.8285 15.9925 10.8033 15.3169C9.61856 14.5362 10.3866 14.1071 11.0618 13.4058C11.2385 13.2222 14.3089 10.4295 14.3683 10.1761C14.3758 10.1444 14.3827 10.0263 14.3125 9.96397C14.2423 9.90161 14.1388 9.92293 14.064 9.93989C13.9581 9.96394 12.2709 11.0791 9.00237 13.2855C8.52345 13.6143 8.08967 13.7746 7.70101 13.7662C7.27255 13.7569 6.44836 13.5239 5.83566 13.3247C5.08416 13.0805 4.48688 12.9513 4.53889 12.5364C4.56598 12.3203 4.86356 12.0993 5.43162 11.8735Z" fill="white"/>
</g>
<defs>
<clipPath id="clip0_39_1455">
<rect width="24" height="24" fill="white"/>
</clipPath>
</defs>
</svg>
