<svg width="24" height="24" viewBox="0 0 24 24" fill="none" xmlns="http://www.w3.org/2000/svg">
<g clip-path="url(#clip0_39_1473)">
<path d="M12.0291 0H11.9745C5.36217 0 0.0018158 5.36035 0.0018158 11.9727V12.0273C0.0018158 18.6397 5.36217 24 11.9745 24H12.0291C18.6415 24 24.0018 18.6397 24.0018 12.0273V11.9727C24.0018 5.36035 18.6415 0 12.0291 0Z" fill="#232323" fill-opacity="0.3"/>
<path fill-rule="evenodd" clip-rule="evenodd" d="M15.7127 4.88272H8.28639C6.23475 4.88272 4.56569 6.55178 4.56569 8.60342V15.3974C4.56569 17.449 6.23475 19.1181 8.28639 19.1181H15.7127C17.7643 19.1181 19.4334 17.449 19.4334 15.3974V8.60342C19.4334 6.55178 17.7643 4.88272 15.7127 4.88272ZM5.87824 8.60342C5.87824 7.27574 6.95871 6.19527 8.28639 6.19527H15.7127C17.0403 6.19527 18.1208 7.27574 18.1208 8.60342V15.3974C18.1208 16.7251 17.0403 17.8055 15.7127 17.8055H8.28639C6.95871 17.8055 5.87824 16.7251 5.87824 15.3974V8.60342ZM12.0004 15.4604C13.9083 15.4604 15.4613 13.9082 15.4613 11.9995C15.4613 10.0908 13.9091 8.53867 12.0004 8.53867C10.0917 8.53867 8.53952 10.0908 8.53952 11.9995C8.53952 13.9082 10.0917 15.4604 12.0004 15.4604ZM12.0004 9.85205C13.1851 9.85205 14.1487 10.8156 14.1487 12.0004C14.1487 13.1851 13.1851 14.1487 12.0004 14.1487C10.8157 14.1487 9.85206 13.1851 9.85206 12.0004C9.85206 10.8156 10.8157 9.85205 12.0004 9.85205ZM16.7144 8.16534C16.7144 8.67993 16.2958 9.09783 15.7822 9.09783C15.2677 9.09783 14.85 8.67993 14.85 8.16534C14.85 7.65075 15.2677 7.23285 15.7822 7.23285C16.2966 7.23285 16.7144 7.65075 16.7144 8.16534Z" fill="white"/>
</g>
<defs>
<clipPath id="clip0_39_1473">
<rect width="24" height="24" fill="white"/>
</clipPath>
</defs>
</svg>
