<svg width="96" height="16" viewBox="0 0 96 16" fill="none" xmlns="http://www.w3.org/2000/svg">
<path d="M14.6431 7.17839L11.8306 9.60527L12.6875 13.2346C12.7347 13.4317 12.7226 13.6383 12.6525 13.8284C12.5824 14.0185 12.4575 14.1836 12.2937 14.3027C12.1298 14.4219 11.9343 14.4899 11.7319 14.498C11.5294 14.5061 11.3291 14.4541 11.1562 14.3484L7.99996 12.4059L4.84184 14.3484C4.66898 14.4534 4.4689 14.505 4.2668 14.4966C4.06469 14.4882 3.8696 14.4201 3.70609 14.301C3.54257 14.182 3.41795 14.0172 3.3479 13.8274C3.27786 13.6376 3.26553 13.4314 3.31246 13.2346L4.17246 9.60527L1.35996 7.17839C1.20702 7.04621 1.09641 6.8719 1.04195 6.67723C0.987486 6.48256 0.99158 6.27616 1.05372 6.08381C1.11586 5.89145 1.23329 5.72167 1.39135 5.59565C1.54941 5.46964 1.7411 5.39299 1.94246 5.37527L5.62996 5.07776L7.05246 1.63526C7.12946 1.44765 7.2605 1.28717 7.42894 1.17423C7.59738 1.06128 7.7956 1.00098 7.9984 1.00098C8.2012 1.00098 8.39942 1.06128 8.56785 1.17423C8.73629 1.28717 8.86734 1.44765 8.94434 1.63526L10.3662 5.07776L14.0537 5.37527C14.2555 5.39233 14.4477 5.46856 14.6064 5.59439C14.765 5.72023 14.883 5.89009 14.9455 6.08267C15.008 6.27526 15.0123 6.48202 14.9579 6.67705C14.9034 6.87207 14.7926 7.04669 14.6393 7.17902L14.6431 7.17839Z" fill="#F9CB2D"/>
<path d="M34.6431 7.17839L31.8306 9.60527L32.6875 13.2346C32.7347 13.4317 32.7226 13.6383 32.6525 13.8284C32.5824 14.0185 32.4575 14.1836 32.2937 14.3027C32.1298 14.4219 31.9343 14.4899 31.7319 14.498C31.5294 14.5061 31.3291 14.4541 31.1562 14.3484L28 12.4059L24.8418 14.3484C24.669 14.4534 24.4689 14.505 24.2668 14.4966C24.0647 14.4882 23.8696 14.4201 23.7061 14.301C23.5426 14.182 23.4179 14.0172 23.3479 13.8274C23.2779 13.6376 23.2655 13.4314 23.3125 13.2346L24.1725 9.60527L21.36 7.17839C21.207 7.04621 21.0964 6.8719 21.042 6.67723C20.9875 6.48256 20.9916 6.27616 21.0537 6.08381C21.1159 5.89145 21.2333 5.72167 21.3914 5.59565C21.5494 5.46964 21.7411 5.39299 21.9425 5.37527L25.63 5.07776L27.0525 1.63526C27.1295 1.44765 27.2605 1.28717 27.4289 1.17423C27.5974 1.06128 27.7956 1.00098 27.9984 1.00098C28.2012 1.00098 28.3994 1.06128 28.5679 1.17423C28.7363 1.28717 28.8673 1.44765 28.9443 1.63526L30.3662 5.07776L34.0537 5.37527C34.2555 5.39233 34.4477 5.46856 34.6064 5.59439C34.765 5.72023 34.883 5.89009 34.9455 6.08267C35.008 6.27526 35.0123 6.48202 34.9579 6.67705C34.9034 6.87207 34.7926 7.04669 34.6393 7.17902L34.6431 7.17839Z" fill="#F9CB2D"/>
<path d="M54.6431 7.17839L51.8306 9.60527L52.6875 13.2346C52.7347 13.4317 52.7226 13.6383 52.6525 13.8284C52.5824 14.0185 52.4575 14.1836 52.2937 14.3027C52.1298 14.4219 51.9343 14.4899 51.7319 14.498C51.5294 14.5061 51.3291 14.4541 51.1562 14.3484L48 12.4059L44.8418 14.3484C44.669 14.4534 44.4689 14.505 44.2668 14.4966C44.0647 14.4882 43.8696 14.4201 43.7061 14.301C43.5426 14.182 43.4179 14.0172 43.3479 13.8274C43.2779 13.6376 43.2655 13.4314 43.3125 13.2346L44.1725 9.60527L41.36 7.17839C41.207 7.04621 41.0964 6.8719 41.042 6.67723C40.9875 6.48256 40.9916 6.27616 41.0537 6.08381C41.1159 5.89145 41.2333 5.72167 41.3914 5.59565C41.5494 5.46964 41.7411 5.39299 41.9425 5.37527L45.63 5.07776L47.0525 1.63526C47.1295 1.44765 47.2605 1.28717 47.4289 1.17423C47.5974 1.06128 47.7956 1.00098 47.9984 1.00098C48.2012 1.00098 48.3994 1.06128 48.5679 1.17423C48.7363 1.28717 48.8673 1.44765 48.9443 1.63526L50.3662 5.07776L54.0537 5.37527C54.2555 5.39233 54.4477 5.46856 54.6064 5.59439C54.765 5.72023 54.883 5.89009 54.9455 6.08267C55.008 6.27526 55.0123 6.48202 54.9579 6.67705C54.9034 6.87207 54.7926 7.04669 54.6393 7.17902L54.6431 7.17839Z" fill="#F9CB2D"/>
<path d="M74.6431 7.17839L71.8306 9.60527L72.6875 13.2346C72.7347 13.4317 72.7226 13.6383 72.6525 13.8284C72.5824 14.0185 72.4575 14.1836 72.2937 14.3027C72.1298 14.4219 71.9343 14.4899 71.7319 14.498C71.5294 14.5061 71.3291 14.4541 71.1562 14.3484L68 12.4059L64.8418 14.3484C64.669 14.4534 64.4689 14.505 64.2668 14.4966C64.0647 14.4882 63.8696 14.4201 63.7061 14.301C63.5426 14.182 63.4179 14.0172 63.3479 13.8274C63.2779 13.6376 63.2655 13.4314 63.3125 13.2346L64.1725 9.60527L61.36 7.17839C61.207 7.04621 61.0964 6.8719 61.042 6.67723C60.9875 6.48256 60.9916 6.27616 61.0537 6.08381C61.1159 5.89145 61.2333 5.72167 61.3914 5.59565C61.5494 5.46964 61.7411 5.39299 61.9425 5.37527L65.63 5.07776L67.0525 1.63526C67.1295 1.44765 67.2605 1.28717 67.4289 1.17423C67.5974 1.06128 67.7956 1.00098 67.9984 1.00098C68.2012 1.00098 68.3994 1.06128 68.5679 1.17423C68.7363 1.28717 68.8673 1.44765 68.9443 1.63526L70.3662 5.07776L74.0537 5.37527C74.2555 5.39233 74.4477 5.46856 74.6064 5.59439C74.765 5.72023 74.883 5.89009 74.9455 6.08267C75.008 6.27526 75.0123 6.48202 74.9579 6.67705C74.9034 6.87207 74.7926 7.04669 74.6393 7.17902L74.6431 7.17839Z" fill="#F9CB2D"/>
<path d="M94.6431 7.17839L91.8306 9.60527L92.6875 13.2346C92.7347 13.4317 92.7226 13.6383 92.6525 13.8284C92.5824 14.0185 92.4575 14.1836 92.2937 14.3027C92.1298 14.4219 91.9343 14.4899 91.7319 14.498C91.5294 14.5061 91.3291 14.4541 91.1562 14.3484L88 12.4059L84.8418 14.3484C84.669 14.4534 84.4689 14.505 84.2668 14.4966C84.0647 14.4882 83.8696 14.4201 83.7061 14.301C83.5426 14.182 83.4179 14.0172 83.3479 13.8274C83.2779 13.6376 83.2655 13.4314 83.3125 13.2346L84.1725 9.60527L81.36 7.17839C81.207 7.04621 81.0964 6.8719 81.042 6.67723C80.9875 6.48256 80.9916 6.27616 81.0537 6.08381C81.1159 5.89145 81.2333 5.72167 81.3914 5.59565C81.5494 5.46964 81.7411 5.39299 81.9425 5.37527L85.63 5.07776L87.0525 1.63526C87.1295 1.44765 87.2605 1.28717 87.4289 1.17423C87.5974 1.06128 87.7956 1.00098 87.9984 1.00098C88.2012 1.00098 88.3994 1.06128 88.5679 1.17423C88.7363 1.28717 88.8673 1.44765 88.9443 1.63526L90.3662 5.07776L94.0537 5.37527C94.2555 5.39233 94.4477 5.46856 94.6064 5.59439C94.765 5.72023 94.883 5.89009 94.9455 6.08267C95.008 6.27526 95.0123 6.48202 94.9579 6.67705C94.9034 6.87207 94.7926 7.04669 94.6393 7.17902L94.6431 7.17839Z" fill="#D8D8D8"/>
</svg>
