<svg width="20" height="20" viewBox="0 0 20 20" fill="none" xmlns="http://www.w3.org/2000/svg">
<path d="M18.3039 8.97262L14.7882 12.0062L15.8593 16.5429C15.9184 16.7892 15.9032 17.0475 15.8156 17.2851C15.728 17.5227 15.5719 17.7291 15.3671 17.8781C15.1623 18.027 14.9179 18.112 14.6648 18.1221C14.4118 18.1323 14.1614 18.0672 13.9453 17.9351L9.99995 15.507L6.05229 17.9351C5.83622 18.0664 5.58613 18.1309 5.3335 18.1204C5.08087 18.1098 4.837 18.0248 4.63261 17.8759C4.42822 17.7271 4.27243 17.5211 4.18488 17.2839C4.09732 17.0467 4.08191 16.7889 4.14058 16.5429L5.21558 12.0062L1.69995 8.97262C1.50878 8.8074 1.37052 8.58951 1.30244 8.34617C1.23436 8.10284 1.23947 7.84484 1.31715 7.60439C1.39483 7.36395 1.54162 7.15172 1.73919 6.9942C1.93677 6.83669 2.17637 6.74087 2.42808 6.71872L7.03745 6.34684L8.81557 2.04371C8.91182 1.8092 9.07563 1.6086 9.28618 1.46742C9.49672 1.32624 9.7445 1.25085 9.998 1.25085C10.2515 1.25085 10.4993 1.32624 10.7098 1.46742C10.9204 1.6086 11.0842 1.8092 11.1804 2.04371L12.9578 6.34684L17.5671 6.71872C17.8193 6.74005 18.0596 6.83533 18.2579 6.99263C18.4562 7.14992 18.6037 7.36224 18.6819 7.60298C18.76 7.84371 18.7654 8.10216 18.6973 8.34594C18.6292 8.58972 18.4907 8.80799 18.2992 8.9734L18.3039 8.97262Z" fill="#F5B300"/>
</svg>
