<svg width="100" height="100" viewBox="0 0 100 100" fill="none" xmlns="http://www.w3.org/2000/svg">
<g clip-path="url(#clip0_18_412)">
<path d="M50 24.3594C28.1145 24.3594 10.3698 35.8385 10.3698 49.9948C10.3698 64.1562 28.1145 75.6406 50 75.6406C71.8854 75.6406 89.6302 64.1615 89.6302 49.9948C89.6302 35.8281 71.8854 24.3594 50 24.3594ZM50 64.6354C46.7448 64.6354 44.0885 58.224 43.9218 50.1562C45.8802 50.3281 47.9166 50.4219 50 50.4219C52.0833 50.4219 54.1198 50.3281 56.0781 50.1562C55.9114 58.2187 53.2552 64.6354 50 64.6354ZM44.3229 43.75C45.2083 38.0469 47.4166 34 50 34C52.5833 34 54.7916 38.0469 55.677 43.75C53.8593 43.9115 51.9635 44 50 44C48.0364 44 46.1406 43.9115 44.3229 43.75ZM50 28.0677C45.75 28.0677 42.125 34.4323 40.7864 43.3177C32.7291 42.0625 27.1041 39.1979 27.1041 35.8698C27.1041 31.3802 37.3541 27.7396 50 27.7396C62.6458 27.7396 72.8958 31.3802 72.8958 35.8698C72.8958 39.1979 67.2708 42.0625 59.2135 43.3177C57.875 34.4323 54.25 28.0677 50 28.0677ZM16.052 49.0365C16.052 44.6927 17.7239 40.6146 20.6354 37.1146C20.6041 37.3594 20.5833 37.6094 20.5833 37.8594C20.5833 43.3333 28.7916 48 40.2448 49.7187C40.2343 50.1146 40.2343 50.5156 40.2343 50.9167C40.2343 61.1198 43.0937 69.7604 47.0468 72.6927C29.677 71.6458 16.052 61.4531 16.052 49.0365ZM52.9531 72.6927C56.9062 69.7604 59.7656 61.1198 59.7656 50.9167C59.7656 50.5104 59.7604 50.1146 59.7552 49.7187C71.2031 48 79.4166 43.3385 79.4166 37.8594C79.4166 37.6094 79.3958 37.3594 79.3645 37.1146C82.276 40.625 83.9479 44.6927 83.9479 49.0365C83.9479 61.4531 70.3229 71.6458 52.9531 72.6927Z" fill="#282830"/>
</g>
<defs>
<clipPath id="clip0_18_412">
<rect width="80" height="52" fill="white" transform="translate(10 24)"/>
</clipPath>
</defs>
</svg>
