<svg width="20" height="20" viewBox="0 0 20 20" fill="none" xmlns="http://www.w3.org/2000/svg">
<g clip-path="url(#clip0_18_495)">
<mask id="mask0_18_495" style="mask-type:luminance" maskUnits="userSpaceOnUse" x="0" y="0" width="20" height="20">
<path d="M19.901 0H0.0990067V20H19.901V0Z" fill="white"/>
</mask>
<g mask="url(#mask0_18_495)">
<path d="M0.0990067 9.6C0.0990067 5.07452 0.0990067 2.81178 1.49097 1.40589C2.88295 0 5.12328 0 9.60396 0H10.396C14.8767 0 17.117 0 18.509 1.40589C19.901 2.81178 19.901 5.07452 19.901 9.6V10.4C19.901 14.9255 19.901 17.1882 18.509 18.5941C17.117 20 14.8767 20 10.396 20H9.60396C5.12328 20 2.88295 20 1.49097 18.5941C0.0990067 17.1882 0.0990067 14.9255 0.0990067 10.4V9.6Z" fill="white" fill-opacity="0.5"/>
<path d="M10.6353 14.4085C6.12213 14.4085 3.5479 11.2835 3.44063 6.0835H5.70136C5.77562 9.90016 7.44225 11.5168 8.76237 11.8502V6.0835H10.8912V9.37514C12.1948 9.23348 13.5643 7.7335 14.0263 6.0835H16.1551C15.8003 8.11684 14.3151 9.61682 13.259 10.2335C14.3151 10.7335 16.0066 12.0418 16.6502 14.4085H14.3069C13.8036 12.8252 12.5496 11.6002 10.8912 11.4335V14.4085H10.6353Z" fill="white"/>
</g>
</g>
<defs>
<clipPath id="clip0_18_495">
<rect width="20" height="20" fill="white"/>
</clipPath>
</defs>
</svg>
