<svg width="50" height="51" viewBox="0 0 50 51" fill="none" xmlns="http://www.w3.org/2000/svg">
<path d="M0 9.25C0 4.41751 3.91751 0.5 8.75 0.5H41.25C46.0825 0.5 50 4.41751 50 9.25V41.75C50 46.5825 46.0825 50.5 41.25 50.5H8.75C3.91751 50.5 0 46.5825 0 41.75V9.25Z" fill="#0F9AEF"/>
<path fill-rule="evenodd" clip-rule="evenodd" d="M42.6844 17.6875C37.2579 17.6875 32.2029 19.2613 27.9393 21.9677C25.4147 23.5701 23.1681 25.5685 21.2908 27.8806C19.0028 26.1771 16.3639 24.9197 13.5039 24.2266C11.8649 23.8293 10.1546 23.6136 8.39325 23.6136C7.66992 23.6136 6.95514 23.6491 6.25 23.7187C8.82917 23.9724 11.2722 24.6839 13.5039 25.7628C15.7971 26.8716 17.8634 28.3717 19.6165 30.1786C20.5504 31.141 21.3941 32.1902 22.1364 33.3125C22.6581 32.2265 23.2469 31.1793 23.9014 30.178C25.928 27.0766 28.5615 24.4071 31.6386 22.3432C35.4641 19.7772 39.9685 18.1431 44.8274 17.7695C44.1203 17.7153 43.4055 17.6875 42.6844 17.6875Z" fill="white"/>
</svg>
