<svg width="20" height="20" viewBox="0 0 20 20" fill="none" xmlns="http://www.w3.org/2000/svg">
<g clip-path="url(#clip0_18_492)">
<path d="M0.198425 19.9486C0.086196 19.8863 0.00189744 19.7447 1.22512e-06 19.6151C-0.000761248 19.5631 0.354478 18.5975 0.78942 17.4693L1.58022 15.4181L1.45239 15.1978C1.21725 14.7925 0.74855 13.8084 0.602389 13.4131C0.416247 12.9096 0.182609 11.9771 0.0928439 11.3794C0.00570287 10.7991 -0.00785122 9.29632 0.0692099 8.75899C0.401286 6.44351 1.35944 4.48798 2.93311 2.91395C4.50516 1.34155 6.48549 0.368128 8.75729 0.0511006C9.24553 -0.0170335 10.7715 -0.0170335 11.2598 0.0511006C14.1853 0.459351 16.6729 1.98986 18.2938 4.37867C19.1526 5.6444 19.6759 7.00373 19.9275 8.62211C20.0151 9.18617 20.0258 10.7247 19.9459 11.262C19.6058 13.5467 18.6179 15.5459 17.0673 17.0875C14.6493 19.4914 11.2087 20.4905 7.83841 19.7674C6.9845 19.5842 5.70336 19.0757 4.90582 18.6034L4.71031 18.4876L2.59885 19.2436C1.43754 19.6594 0.443392 19.9998 0.389627 20C0.335863 20.0002 0.249822 19.977 0.198425 19.9486Z" fill="white" fill-opacity="0.5"/>
<path d="M14.3283 14.3119C14.0444 14.5926 13.7538 14.7717 13.3645 14.906C13.0005 15.0315 12.3499 15.0649 11.9633 14.9778C11.0625 14.7749 9.68314 14.0595 8.50288 13.1833C7.38759 12.3553 6.42741 11.1519 5.62803 9.58034C5.00771 8.36082 4.84312 7.58299 5.04133 6.80781C5.25926 5.95552 5.93133 5.2519 6.7602 5.00823C6.91073 4.96398 7.13408 4.9458 7.52717 4.9458C8.03258 4.9458 8.0911 4.95314 8.18688 5.0285C8.25337 5.08081 8.46704 5.45807 8.76837 6.05514L9.24475 6.99908L9.24341 7.33151C9.24221 7.62873 9.22748 7.69503 9.10433 7.95735C9.02858 8.11872 8.85021 8.39494 8.70796 8.57118L8.44932 8.89161L8.6328 9.25753C9.10985 10.2089 9.81353 10.9041 10.7874 11.3861L11.1171 11.5493L11.3412 11.347C11.8142 10.9201 12.2851 10.7148 12.7258 10.7436C12.9825 10.7604 13.058 10.7908 13.938 11.2322C14.4541 11.491 14.9116 11.7418 14.9546 11.7895C15.0236 11.8661 15.0343 11.9417 15.0454 12.4339C15.057 12.9515 15.0505 13.0137 14.9545 13.2998C14.8192 13.7028 14.6219 14.0217 14.3283 14.3119Z" fill="white"/>
</g>
<defs>
<clipPath id="clip0_18_492">
<rect width="20" height="20" fill="white"/>
</clipPath>
</defs>
</svg>
