<svg width="48" height="48" viewBox="0 0 48 48" fill="none" xmlns="http://www.w3.org/2000/svg">
<rect width="48" height="48" rx="12" fill="#F2EFF2"/>
<g clip-path="url(#clip0_39_1352)">
<path d="M12.2381 35.9383C12.1034 35.8636 12.0023 35.6936 12 35.5382C11.9991 35.4757 12.4254 34.3169 12.9473 32.9632L13.8963 30.5018L13.7429 30.2374C13.4607 29.751 12.8983 28.5701 12.7229 28.0957C12.4995 27.4915 12.2191 26.3725 12.1114 25.6552C12.0068 24.9589 11.9906 23.1556 12.0831 22.5108C12.4815 19.7322 13.6313 17.3856 15.5197 15.4967C17.4062 13.6099 19.7826 12.4418 22.5087 12.0613C23.0946 11.9796 24.9258 11.9796 25.5117 12.0613C29.0223 12.5512 32.0075 14.3878 33.9525 17.2544C34.9831 18.7733 35.6111 20.4045 35.9129 22.3465C36.0181 23.0234 36.031 24.8696 35.935 25.5144C35.527 28.256 34.3415 30.6551 32.4808 32.505C29.5792 35.3897 25.4504 36.5886 21.4061 35.7209C20.3814 35.501 18.844 34.8908 17.887 34.3241L17.6524 34.1852L15.1186 35.0924C13.725 35.5913 12.5321 35.9998 12.4676 36C12.403 36.0002 12.2998 35.9725 12.2381 35.9383Z" fill="#25D366"/>
<path d="M29.194 29.1749C28.8533 29.5117 28.5046 29.7266 28.0375 29.8878C27.6006 30.0384 26.8199 30.0785 26.3561 29.974C25.2751 29.7304 23.6198 28.872 22.2035 27.8205C20.8652 26.8269 19.7129 25.3829 18.7537 23.497C18.0093 22.0336 17.8118 21.1002 18.0496 20.17C18.3112 19.1472 19.1176 18.3029 20.1123 18.0105C20.2929 17.9574 20.5609 17.9355 21.0327 17.9355C21.6391 17.9355 21.7094 17.9443 21.8243 18.0348C21.9041 18.0976 22.1605 18.5503 22.5221 19.2668L23.0937 20.3995L23.0921 20.7984C23.0907 21.1551 23.073 21.2346 22.9252 21.5494C22.8343 21.743 22.6203 22.0745 22.4496 22.286L22.1392 22.6705L22.3594 23.1096C22.9319 24.2513 23.7763 25.0855 24.9449 25.664L25.3405 25.8598L25.6095 25.617C26.1771 25.1047 26.7422 24.8584 27.271 24.8929C27.579 24.913 27.6697 24.9496 28.7256 25.4792C29.345 25.7898 29.8939 26.0908 29.9455 26.148C30.0284 26.2399 30.0412 26.3306 30.0545 26.9213C30.0685 27.5424 30.0606 27.617 29.9454 27.9603C29.7831 28.4439 29.5464 28.8267 29.194 29.1749Z" fill="white"/>
</g>
<defs>
<clipPath id="clip0_39_1352">
<rect width="24" height="24" fill="white" transform="translate(12 12)"/>
</clipPath>
</defs>
</svg>
