<svg width="50" height="51" viewBox="0 0 50 51" fill="none" xmlns="http://www.w3.org/2000/svg">
<g clip-path="url(#clip0_18_1173)">
<path d="M34 0.5H16C7.16344 0.5 0 7.66344 0 16.5V34.5C0 43.3366 7.16344 50.5 16 50.5H34C42.8366 50.5 50 43.3366 50 34.5V16.5C50 7.66344 42.8366 0.5 34 0.5Z" fill="white"/>
<path d="M25 6.5C21.9931 6.49922 19.0536 7.39026 16.5533 9.0604C14.0529 10.7305 12.1041 13.1048 10.9533 15.8827C9.80252 18.6606 9.5015 21.7174 10.0883 24.6665C10.6751 27.6155 12.1234 30.3242 14.25 32.45C17 35.2 23.48 39.18 23.86 43.36C23.92 43.99 24.37 44.5 25 44.5C25.63 44.5 26.08 43.99 26.14 43.36C26.52 39.18 33 35.2 35.75 32.45C37.8766 30.3242 39.3249 27.6155 39.9117 24.6665C40.4985 21.7174 40.1975 18.6606 39.0467 15.8827C37.8959 13.1048 35.9471 10.7305 33.4467 9.0604C30.9464 7.39026 28.0069 6.49922 25 6.5Z" fill="#FF4433"/>
<path d="M25 27.02C26.4109 27.02 27.7641 26.4595 28.7618 25.4618C29.7595 24.4641 30.32 23.111 30.32 21.7C30.32 20.2891 29.7595 18.9359 28.7618 17.9382C27.7641 16.9405 26.4109 16.38 25 16.38C23.589 16.38 22.2359 16.9405 21.2382 17.9382C20.2405 18.9359 19.68 20.2891 19.68 21.7C19.68 23.111 20.2405 24.4641 21.2382 25.4618C22.2359 26.4595 23.589 27.02 25 27.02Z" fill="white"/>
<path fill-rule="evenodd" clip-rule="evenodd" d="M34 1.5H16C12.0218 1.5 8.20644 3.08035 5.3934 5.8934C2.58035 8.70644 1 12.5218 1 16.5V34.5C1 38.4782 2.58035 42.2936 5.3934 45.1066C8.20644 47.9196 12.0218 49.5 16 49.5H34C37.9782 49.5 41.7936 47.9196 44.6066 45.1066C47.4196 42.2936 49 38.4782 49 34.5V16.5C49 12.5218 47.4196 8.70644 44.6066 5.8934C41.7936 3.08035 37.9782 1.5 34 1.5ZM16 0.5C11.7565 0.5 7.68687 2.18571 4.68629 5.18629C1.68571 8.18687 0 12.2565 0 16.5L0 34.5C0 38.7435 1.68571 42.8131 4.68629 45.8137C7.68687 48.8143 11.7565 50.5 16 50.5H34C38.2435 50.5 42.3131 48.8143 45.3137 45.8137C48.3143 42.8131 50 38.7435 50 34.5V16.5C50 12.2565 48.3143 8.18687 45.3137 5.18629C42.3131 2.18571 38.2435 0.5 34 0.5L16 0.5Z" fill="black" fill-opacity="0.12"/>
</g>
<defs>
<clipPath id="clip0_18_1173">
<rect width="50" height="50" fill="white" transform="translate(0 0.5)"/>
</clipPath>
</defs>
</svg>
